<svg xmlns="http://www.w3.org/2000/svg" xmlns:xlink="http://www.w3.org/1999/xlink" viewBox="0 0 307 44.39" xmlns:v="https://vecta.io/nano"><g fill="#20b7d0"><use xlink:href="#B"/><use xlink:href="#C"/><use xlink:href="#D"/><use xlink:href="#E"/><path d="M104.38,33.72h-5.05V0h5.05V33.72Z"/><use xlink:href="#F"/><use xlink:href="#G"/><use xlink:href="#H"/><use xlink:href="#I"/><use xlink:href="#J"/><path d="M229.05 33.72H224V0h5.05v33.72z"/></g><g fill="#999da3"><path d="M246.85 15.75h-2.38V9.22h-6.68v6.53h-2.37V1.27h2.37v5.92h6.68V1.27h2.38v14.48z"/><use xlink:href="#K"/><use xlink:href="#L"/><use xlink:href="#L" x="11.21"/><use xlink:href="#K" x="33.45"/><use xlink:href="#M"/></g><g fill="#20b7d0"><use xlink:href="#B"/><use xlink:href="#C"/><use xlink:href="#D"/><use xlink:href="#E"/><path d="M104.38,33.72h-5.05V0h5.05V33.72Z"/><use xlink:href="#F"/><use xlink:href="#G"/><use xlink:href="#H"/><use xlink:href="#I"/><use xlink:href="#J"/><path d="M229.05 33.72H224V0h5.05v33.72z"/></g><g fill="#999da3"><path d="M246.85 15.75h-2.38V9.22h-6.68v6.53h-2.37V1.27h2.37v5.92h6.68V1.27h2.38v14.48z"/><use xlink:href="#K"/><use xlink:href="#L"/><use xlink:href="#L" x="11.21"/><use xlink:href="#K" x="33.45"/><use xlink:href="#M"/></g><defs ><path id="B" d="M20.12 25.12c0 2.82-1.01 5.03-3.03 6.63s-4.81 2.41-8.36 2.41S2.27 33.6 0 32.49v-4.9c1.43.68 2.96 1.21 4.57 1.6s3.11.59 4.5.59c2.04 0 3.54-.39 4.5-1.17.97-.78 1.45-1.83 1.45-3.14a3.94 3.94 0 0 0-1.33-3.01c-.89-.82-2.72-1.8-5.5-2.93-2.87-1.17-4.89-2.51-6.06-4.01C.95 14.02.37 12.21.37 10.1c0-2.64.93-4.73 2.79-6.24 1.86-1.52 4.36-2.28 7.5-2.28s6.01.66 8.99 1.99L18.02 7.8c-2.8-1.18-5.29-1.78-7.48-1.78-1.66 0-2.92.37-3.78 1.09C5.9 7.84 5.47 8.8 5.47 10c0 .82.17 1.53.52 2.11.34.59.91 1.14 1.7 1.66s2.21 1.21 4.26 2.06c2.31.97 4 1.87 5.07 2.71s1.86 1.78 2.37 2.84c.5 1.06.75 2.3.75 3.73z"/><path id="C" d="M34.65 34.16c-3.6 0-6.33-1.06-8.2-3.18s-2.81-5.15-2.81-9.11.98-7.13 2.93-9.3c1.96-2.17 4.78-3.25 8.48-3.25 2.51 0 4.77.47 6.77 1.41l-1.53 4.1c-2.14-.84-3.9-1.26-5.29-1.26-4.11 0-6.17 2.75-6.17 8.26 0 2.69.51 4.71 1.54 6.06 1.02 1.35 2.53 2.03 4.5 2.03 2.25 0 4.38-.56 6.39-1.69v4.44a10.04 10.04 0 0 1-2.89 1.15c-1.03.23-2.27.35-3.73.35z"/><path id="D" d="M66.63 33.72h-5.07V18.98c0-1.85-.37-3.23-1.11-4.14s-1.91-1.37-3.52-1.37c-2.12 0-3.68.64-4.68 1.92s-1.49 3.42-1.49 6.43v11.9h-5.05V0h5.05v8.56c0 1.37-.09 2.84-.26 4.4h.32c.69-1.16 1.64-2.05 2.87-2.69s2.66-.95 4.29-.95c5.76 0 8.64 2.93 8.64 8.78v15.63z"/><path id="E" d="M89.33 33.72l-.71-3.14h-.26c-.7 1.11-1.7 1.99-3 2.62-1.3.64-2.78.95-4.44.95-2.88 0-5.03-.72-6.45-2.17-1.42-1.44-2.13-3.63-2.13-6.57V9.75h5.1v14.78c0 1.83.37 3.21 1.12 4.13s1.91 1.38 3.5 1.38c2.12 0 3.68-.64 4.68-1.92s1.49-3.42 1.49-6.43V9.75h5.07v23.97h-3.98z"/><path id="F" d="M122.46 34.16c-3.01 0-5.35-1.09-7.01-3.27h-.3l.3 3.68v9.82h-5.05V9.75h4.09l.71 3.21h.26c1.58-2.43 3.94-3.64 7.1-3.64 2.97 0 5.28 1.08 6.93 3.25 1.66 2.17 2.48 5.21 2.48 9.12s-.84 6.97-2.53 9.17c-1.68 2.2-4.01 3.29-6.98 3.29zm-1.23-20.68c-2.01 0-3.47.59-4.4 1.78-.92 1.18-1.39 3.08-1.39 5.68v.76c0 2.92.46 5.03 1.38 6.34s2.42 1.96 4.49 1.96c1.75 0 3.1-.72 4.04-2.17.95-1.44 1.42-3.5 1.42-6.18s-.47-4.72-1.41-6.1-2.32-2.07-4.14-2.07z"/><path id="G" d="M158.21 21.69c0 3.92-1 6.97-2.99 9.17s-4.77 3.29-8.32 3.29c-2.22 0-4.19-.51-5.89-1.52-1.71-1.01-3.02-2.46-3.93-4.36-.92-1.89-1.38-4.09-1.38-6.59 0-3.89.99-6.92 2.97-9.1s4.77-3.27 8.36-3.27 6.16 1.12 8.17 3.35 3.01 5.24 3.01 9.03zm-17.31 0c0 5.53 2.03 8.3 6.08 8.3s6.02-2.77 6.02-8.3-2.02-8.21-6.06-8.21c-2.12 0-3.66.71-4.61 2.12-.95 1.42-1.43 3.45-1.43 6.09z"/><path id="H" d="M175.07 9.32c1.02 0 1.86.07 2.52.22l-.49 4.75c-.72-.17-1.46-.26-2.24-.26-2.02 0-3.66.66-4.91 1.99s-1.88 3.06-1.88 5.18v12.53h-5.05V9.75h3.96l.67 4.23h.26c.79-1.43 1.82-2.56 3.09-3.4s2.63-1.26 4.1-1.26z"/><path id="I" d="M191.4 30.04a12.22 12.22 0 0 0 3.7-.59v3.84c-.56.25-1.28.45-2.16.62a14.47 14.47 0 0 1-2.74.25c-4.79 0-7.18-2.54-7.18-7.63V13.61h-3.25v-2.25l3.48-1.86 1.72-5.07h3.12v5.33h6.77v3.86h-6.77v12.83c0 1.23.3 2.13.91 2.72s1.41.88 2.4.88z"/><path id="J" d="M214.46 33.72l-1.01-3.34h-.17c-1.15 1.46-2.3 2.45-3.46 2.98s-2.65.79-4.47.79c-2.34 0-4.16-.64-5.47-1.91s-1.97-3.07-1.97-5.4c0-2.47.91-4.33 2.73-5.59s4.59-1.94 8.32-2.06l4.11-.13v-1.28c0-1.53-.35-2.68-1.06-3.44s-1.81-1.14-3.3-1.14a11.29 11.29 0 0 0-3.5.54c-1.12.36-2.19.79-3.22 1.28l-1.63-3.64c1.29-.68 2.7-1.2 4.24-1.55 1.53-.35 2.98-.53 4.34-.53 3.02 0 5.31.66 6.85 1.99s2.31 3.42 2.31 6.26V33.7h-3.61zm-7.53-3.47c1.83 0 3.31-.52 4.42-1.55s1.67-2.48 1.67-4.35v-2.08l-3.05.13c-2.38.09-4.11.49-5.19 1.2-1.08.72-1.62 1.81-1.62 3.28 0 1.07.32 1.9.95 2.48.63.59 1.58.88 2.84.88z"/><path id="K" d="M258.62 15.75h-8.19V1.27h8.19v2h-5.83v3.94h5.46v1.98h-5.46v4.55h5.83v2.01z"/><path id="L" d="M270.05 11.82c0 1.29-.47 2.3-1.4 3.03s-2.22 1.1-3.85 1.1-2.98-.25-4.02-.76v-2.24c.66.31 1.36.55 2.11.73.74.18 1.43.27 2.08.27.94 0 1.63-.18 2.08-.53.45-.36.67-.84.67-1.44 0-.54-.2-1-.61-1.38s-1.26-.82-2.54-1.34c-1.32-.54-2.25-1.15-2.79-1.83-.54-.69-.81-1.51-.81-2.48 0-1.21.43-2.16 1.29-2.85s2.01-1.04 3.46-1.04 2.77.3 4.14.91l-.75 1.93c-1.29-.54-2.44-.81-3.45-.81-.77 0-1.35.17-1.74.5-.4.33-.59.77-.59 1.32 0 .38.08.7.24.97s.42.52.78.76 1.02.55 1.96.94c1.06.44 1.84.86 2.34 1.24s.86.82 1.09 1.3.35 1.05.35 1.7z"/><path id="M" d="M307 15.75h-2.9l-7.12-11.54h-.08l.05.64.14 3.37v7.53h-2.15V1.27h2.87l7.1 11.48h.06l-.08-1.66-.06-2.23V1.27H307v14.48z"/></defs></svg>