<svg xmlns="http://www.w3.org/2000/svg" viewBox="0 0 841.89 178.67" fill="#fff" xmlns:v="https://vecta.io/nano"><path d="M132.61 103.45c0 4.64-1.66 8.28-4.99 10.92s-7.92 3.96-13.77 3.96-10.65-.92-14.37-2.75v-8.07c2.36 1.12 4.87 2 7.52 2.64 2.66.64 5.13.96 7.42.96 3.35 0 5.82-.64 7.42-1.93 1.59-1.29 2.39-3.01 2.39-5.18 0-1.95-.73-3.6-2.2-4.96-1.46-1.36-4.48-2.96-9.06-4.82-4.72-1.93-8.05-4.13-9.98-6.6-1.94-2.47-2.9-5.45-2.9-8.92 0-4.35 1.53-7.78 4.6-10.28s7.19-3.75 12.36-3.75c4.96 0 9.89 1.09 14.8 3.28l-2.69 6.96c-4.6-1.95-8.71-2.93-12.32-2.93-2.74 0-4.81.6-6.23 1.8s-2.12 2.79-2.12 4.76c0 1.36.28 2.52.85 3.48s1.5 1.87 2.8 2.73 3.63 1.99 7.01 3.39c3.8 1.59 6.59 3.08 8.36 4.46s3.07 2.94 3.89 4.67c.79 1.78 1.21 3.83 1.21 6.18zm23.92 14.89c-5.92 0-10.43-1.74-13.51-5.23s-4.62-8.49-4.62-15.01c0-6.64 1.61-11.74 4.83-15.31s7.88-5.35 13.97-5.35c4.13 0 7.85.77 11.15 2.32l-2.51 6.75c-3.52-1.38-6.42-2.07-8.71-2.07-6.77 0-10.16 4.53-10.16 13.6 0 4.43.84 7.75 2.53 9.98s4.16 3.34 7.42 3.34c3.71 0 7.21-.93 10.52-2.78v7.32c-1.49.88-3.07 1.51-4.76 1.89-1.69.35-3.74.55-6.15.55zm52.65-.72h-8.36V93.35c0-3.04-.61-5.32-1.82-6.82-1.22-1.5-3.15-2.25-5.79-2.25-3.49 0-6.06 1.05-7.7 3.16s-2.46 5.63-2.46 10.58v19.59h-8.32V62.09h8.32v14.1c0 2.26-.14 4.68-.42 7.24h.53c1.13-1.9 2.71-3.38 4.73-4.43s4.37-1.57 7.06-1.57c9.49 0 14.23 4.82 14.23 14.45v25.74zm37.38 0l-1.17-5.17h-.42c-1.16 1.83-2.8 3.27-4.94 4.32s-4.57 1.57-7.31 1.57c-4.74 0-8.28-1.19-10.62-3.57s-3.5-5.98-3.5-10.81v-25.8h8.39v24.34c0 3.02.61 5.29 1.84 6.8s3.15 2.27 5.77 2.27c3.49 0 6.06-1.05 7.7-3.16s2.46-5.63 2.46-10.58V78.15h8.36v39.47h-6.56zm24.79 0h-8.32V62.09h8.32v55.53zm29.77.72c-4.96 0-8.8-1.8-11.54-5.39h-.5c.33 3.33.5 5.35.5 6.07v16.17h-8.32V78.15h6.73c.19.74.58 2.5 1.17 5.28h.42c2.6-4 6.49-6 11.68-6 4.89 0 8.69 1.78 11.42 5.35s4.09 8.58 4.09 15.03-1.39 11.48-4.16 15.1-6.6 5.43-11.49 5.43zm-2.01-34.05c-3.3 0-5.72.98-7.24 2.93s-2.28 5.07-2.28 9.35v1.25c0 4.81.75 8.29 2.27 10.44 1.51 2.15 3.98 3.23 7.4 3.23 2.88 0 5.1-1.19 6.66-3.57s2.34-5.77 2.34-10.17c0-4.43-.77-7.77-2.32-10.05-1.56-2.28-3.84-3.41-6.83-3.41zM360 97.81c0 6.45-1.64 11.48-4.92 15.1s-7.85 5.42-13.7 5.42c-3.66 0-6.89-.83-9.7-2.5s-4.97-4.06-6.48-7.17c-1.51-3.12-2.27-6.73-2.27-10.85 0-6.4 1.63-11.4 4.89-14.99s7.85-5.39 13.77-5.39c5.67 0 10.15 1.84 13.45 5.51 3.3 3.69 4.96 8.64 4.96 14.87zm-28.5 0c0 9.11 3.34 13.67 10.02 13.67 6.61 0 9.91-4.56 9.91-13.67 0-9.02-3.33-13.53-9.98-13.53-3.49 0-6.02 1.17-7.59 3.5-1.58 2.34-2.36 5.68-2.36 10.03zm56.25-20.37c1.68 0 3.06.12 4.14.36l-.81 7.82c-1.18-.29-2.41-.43-3.68-.43-3.33 0-6.02 1.09-8.09 3.28s-3.1 5.03-3.1 8.53v20.63h-8.32V78.15h6.51l1.1 6.96h.42c1.3-2.36 2.99-4.22 5.08-5.6s4.34-2.07 6.75-2.07zm26.9 34.11c2.03 0 4.06-.32 6.09-.96v6.32c-.92.4-2.11.74-3.56 1.02-1.45.27-2.96.41-4.51.41-7.88 0-11.83-4.19-11.83-12.56V84.5h-5.35v-3.71l5.74-3.07 2.83-8.35h5.13v8.78h11.15v6.35h-11.15v21.13c0 2.02.5 3.52 1.5 4.48 1.01.96 2.33 1.44 3.96 1.44zm37.97 6.07l-1.66-5.5h-.28c-1.89 2.4-3.79 4.04-5.7 4.91s-4.37 1.3-7.36 1.3c-3.85 0-6.85-1.05-9.01-3.14s-3.24-5.06-3.24-8.89c0-4.07 1.5-7.14 4.5-9.21s7.57-3.2 13.7-3.39l6.76-.21v-2.11c0-2.52-.58-4.41-1.75-5.66s-2.98-1.87-5.43-1.87c-2.01 0-3.93.3-5.77.89a44.13 44.13 0 0 0-5.31 2.11l-2.69-6c2.12-1.12 4.45-1.97 6.97-2.55 2.53-.58 4.91-.87 7.15-.87 4.98 0 8.74 1.09 11.28 3.28s3.81 5.63 3.81 10.31v26.59h-5.97zm-12.39-5.71c3.02 0 5.45-.85 7.28-2.55s2.74-4.09 2.74-7.16v-3.43l-5.03.21c-3.92.14-6.77.8-8.55 1.98s-2.67 2.98-2.67 5.41c0 1.76.52 3.12 1.56 4.09 1.03.97 2.59 1.45 4.67 1.45zm36.41 5.71h-8.32V62.09h8.32v55.53zm29.32-29.59h-3.92V77.28h-11v10.75h-3.9V64.17h3.9v9.76h11v-9.76h3.92v23.86zm19.38 0h-13.49V64.17h13.49v3.3h-9.59v6.49h8.99v3.26h-8.99v7.49h9.59v3.32zm18.81-6.48c0 2.12-.77 3.79-2.3 4.99-1.53 1.21-3.65 1.81-6.35 1.81s-4.91-.42-6.62-1.26V83.4c1.09.51 2.24.91 3.47 1.21 1.22.29 2.36.44 3.42.44 1.54 0 2.68-.29 3.42-.88.73-.59 1.1-1.38 1.1-2.37 0-.89-.34-1.65-1.01-2.27s-2.07-1.35-4.18-2.2c-2.18-.88-3.71-1.89-4.6-3.02s-1.34-2.49-1.34-4.08c0-1.99.71-3.56 2.12-4.7s3.31-1.71 5.69-1.71c2.28 0 4.56.5 6.82 1.5l-1.24 3.18c-2.12-.89-4.01-1.34-5.68-1.34-1.26 0-2.22.27-2.87.82s-.98 1.28-.98 2.18c0 .62.13 1.15.39 1.59s.69.86 1.29 1.25 1.67.91 3.23 1.55c1.75.73 3.03 1.41 3.85 2.04s1.41 1.34 1.79 2.14c.39.81.58 1.74.58 2.82zm18.47 0c0 2.12-.77 3.79-2.3 4.99-1.53 1.21-3.65 1.81-6.35 1.81s-4.91-.42-6.62-1.26V83.4c1.09.51 2.24.91 3.47 1.21 1.22.29 2.36.44 3.42.44 1.54 0 2.68-.29 3.42-.88.73-.59 1.1-1.38 1.1-2.37 0-.89-.34-1.65-1.01-2.27s-2.07-1.35-4.18-2.2c-2.18-.88-3.71-1.89-4.6-3.02s-1.34-2.49-1.34-4.08c0-1.99.71-3.56 2.12-4.7s3.31-1.71 5.69-1.71c2.28 0 4.56.5 6.82 1.5l-1.24 3.18c-2.12-.89-4.01-1.34-5.68-1.34-1.26 0-2.22.27-2.87.82s-.98 1.28-.98 2.18c0 .62.13 1.15.39 1.59s.69.86 1.29 1.25 1.67.91 3.23 1.55c1.75.73 3.03 1.41 3.85 2.04s1.41 1.34 1.79 2.14c.38.81.58 1.74.58 2.82zm17.79 6.48h-13.49V64.17h13.49v3.3h-9.59v6.49h8.99v3.26h-8.99v7.49h9.59v3.32zm24.59 0h-4.78l-11.73-19.01h-.13l.08 1.06.23 5.55v12.4h-3.54V64.17h4.73l11.7 18.91h.1l-.13-2.73-.1-3.68v-12.5H605v23.86z"/></svg>